<?xml version="1.0" encoding="utf-8"?>
<!-- Generator: Adobe Illustrator 22.0.0, SVG Export Plug-In . SVG Version: 6.00 Build 0)  -->
<svg version="1.1" id="Camada_1" xmlns="http://www.w3.org/2000/svg" xmlns:xlink="http://www.w3.org/1999/xlink" x="0px" y="0px"
	 viewBox="0 0 1060 372.6" style="enable-background:new 0 0 1060 372.6;" xml:space="preserve">
<style type="text/css">
	.st0{fill:#003B6D;}
	.st1{fill:#D3A312;}
	.st2{fill:#B0880D;}
	.st3{fill:#EAB91C;}
	.st4{fill:#F6C100;}
	.st5{display:none;}
	.st6{display:inline;}
	.st7{display:inline;fill:#FFFFFF;}
	.st8{fill:#FFFFFF;}
</style>
<g>
	<path class="st0" d="M173.5,51.1c-4.9,9.2-10,12.3-19.3,10.4c-6.8-1.4-13.5-3.8-20-6.4c-15.2-6-30.6-9.6-47-6
		c-11.9,2.6-18.4,9.4-17.1,19.4c0.6,4.4,3.3,9.3,6.5,12.5c11.7,11.9,27,18.4,41.2,26.7c13.9,8.2,28,16.5,40.5,26.7
		c14.6,11.9,24.9,27.5,25.4,47.2c0.6,25.2-9.7,46.4-31.9,58.3c-37.5,20.2-76.7,23.2-115.8,3c-9.5-4.9-17.4-11.8-23.3-20.6
		c5-12,16.3-13.1,27.5-11.4c4.2,0.6,8.2,2.6,12.1,4.4c14.5,6.8,29.8,9.4,45.6,9.2c8.7-0.1,16.6-2.9,23.4-8.3
		c12.4-9.6,14.6-26.5,3.7-37.7c-7.5-7.7-16.7-14.1-25.9-20c-11.7-7.4-24.7-12.9-36.2-20.6c-10.9-7.4-22-15.3-30.7-25.1
		C4,80.7,17.6,33.7,58.5,20.5c23.7-7.7,47.2-4.7,70.3,3C145.7,29.2,161,37.6,173.5,51.1"/>
	<path class="st0" d="M416.9,157.8c-1.7-18-10-29.6-22.9-32c-8.7-1.7-17,0.5-25.4,2.9c-7.4,2.2-15.1,3.9-22.8,4.4
		c-8.2,0.5-13.9-4.3-17.3-12.3c11.9-13,26.3-21.6,43.6-24.5c30.4-5.1,56.5,2.4,74.8,28.7c11.1,15.9,13.6,34.4,12.5,53.3
		c-0.5,8.5-1.9,17.2-4.4,25.3c-13.5,44-64.3,65.6-105.4,44.8c-18.4-9.3-27.5-25.1-27.1-45.8c0.4-20.3,11-33.6,29.4-41.2
		c19.5-8.1,39.6-8.4,59.9-4.4C413.4,157.2,414.9,157.5,416.9,157.8 M417.1,185.7c-13.2-3.3-26-5.6-39.1-2.4c-3,0.7-5.9,2.2-8.5,3.9
		c-10.7,7.3-11.3,24.7-1.2,32.6c10.4,8.3,30.7,6.5,39.1-3.8C414.3,207.5,417.1,197.5,417.1,185.7"/>
	<path class="st0" d="M255,43.6v51.3h42.6c0.9,12.8-2.7,22.1-11.8,29c-8.9,6.7-19.6,5.6-30,6.2c-0.4,1.2-1,2.1-0.9,3
		c0.2,19.4,0.4,38.7,0.9,58c0.1,4.2,1.5,8.5,2.9,12.5c6,17,19.1,23.8,36.6,19.3c2.4-0.6,4.9-1.1,7.3-1.6c4.9,10.2,1.5,20.5-8.7,27.5
		c-15.4,10.5-39.1,9.8-54.2-1.2c-19.5-14.3-30.1-34-30.9-57.5c-1.2-38.7-0.7-77.4-0.3-116.2C208.7,48.7,233.5,38.2,255,43.6"/>
	<path class="st0" d="M643.8,42.7v52h42.2c2.6,10.1-2.5,22.6-11.3,29.1c-9.1,6.8-19.9,5.8-30,6.2c-0.5,0.8-0.9,1.2-0.9,1.5
		c0,22.4-2.8,45,2,67.2c3.6,16.5,14.2,25.8,28.5,25.5c5.8-0.1,11.5-1.7,17.3-2.6c4.1,6.5,3,16.2-3,23.1
		c-7.9,9.2-18.5,12.2-30.1,11.5c-19-1.1-32.4-11.6-42.7-26.6c-9.2-13.4-13.8-28.7-14-44.8c-0.4-36.4-0.5-72.8,0.2-109.1
		C602.5,52.8,621.8,37.9,643.8,42.7"/>
	<path class="st0" d="M487.9,186.2c0.7-11.7,0.1-21.6,1.8-33.2c4.9-32.2,24.4-50.2,57.4-53.5c8.5-0.9,17.2-0.8,25.8-0.5
		c1.8,0,4.7,2.3,5.2,4c3.3,11.7-3.6,24-15.4,25.2c-21.3,2.1-29.9,13.3-30.7,36.4c-0.9,26.2,0,52.4,0.5,78.6c0.2,8.8-0.2,9.6-8.9,9.2
		c-22.5-1-35.2-14-35.7-36.6c-0.2-9.2,0-18.4,0-27.6C487.9,187.4,487.9,186.2,487.9,186.2"/>
	<g>
		<g>
			<polygon class="st1" points="801.5,276.8 857.7,184.7 801,82.6 			"/>
			<polygon class="st2" points="970.8,185.2 857.7,184.7 801.5,276.8 			"/>
			<polygon class="st3" points="801,82.6 970.8,185.2 857.7,184.7 			"/>
		</g>
		<path class="st0" d="M771.3,275.5c-0.5-3.3-0.6-6.7-0.5-10c0.6-42.6,1-85.2,1.9-127.7c0.3-17.7,0.9-35.5,2.3-53.1
			c0.2-4.8,0.7-11.5,3.6-17.2c5.2-9.8,17.5-17.5,30.4-14.1c7.9,2.1,12.9,6.1,19.9,10.2c49.2,29,98.3,58.3,147.1,88
			c7.4,4.5,12.5,8.7,17.8,15.6c8.5,11,6.2,25.4-1.9,35c-5,6-12.2,10-19,13.9c-45.3,26-90.7,51.8-136.1,77.5
			c-10.8,6.1-22.2,10.1-36.7,10.4c0,0-0.1,0-0.1,0C786,304.1,773.9,294.2,771.3,275.5 M727.2,57.2c-1.9,10.9-2,22.5-0.4,33.4
			c10.5,72,21.7,143.8,32.6,215.7c1.8,12.2,4.4,22.4,11.4,32.7c7.8,11.5,23.7,22,42.8,19.2c19.2-2.8,28.8-8.9,44.2-21.6
			c57.2-47.1,114-94.8,170.6-142.7c6.8-5.8,13-13.1,16.9-21.2c7.3-15.2,4.8-33.3-5.1-45.6c-8.1-10.2-18.2-14.4-30.4-19.1
			C939.5,80.9,869.3,53.7,799,26.8c-8.5-3.3-20.3-5.6-27.1-5.6C753.3,20.1,731.4,33.2,727.2,57.2"/>
	</g>
	<g>
		<g>
			<path class="st4" d="M464.3,355.6c-2.3,1.2-7.5,2.4-14,2.4c-17.2,0-27.6-10.8-27.6-27.2c0-17.8,12.4-28.6,28.9-28.6
				c6.5,0,11.1,1.4,13.2,2.4l-2.2,7.9c-2.6-1.1-6.1-2.1-10.6-2.1c-11,0-18.9,6.9-18.9,19.9c0,11.9,7,19.5,18.9,19.5
				c4,0,8.2-0.8,10.8-2L464.3,355.6z"/>
			<path class="st4" d="M520.7,329.6c0,18.1-11,28.5-25.9,28.5c-15.3,0-24.9-11.6-24.9-27.5c0-16.6,10.4-28.3,25.7-28.3
				C511.4,302.2,520.7,314.2,520.7,329.6z M480.4,330.4c0,11,5.5,19.7,15,19.7c9.5,0,14.9-8.8,14.9-20.1c0-10.2-5.1-19.8-14.9-19.8
				C485.6,310.2,480.4,319.2,480.4,330.4z"/>
			<path class="st4" d="M529.3,357.2v-54.1h11.2l14,23.2c3.6,6,6.7,12.3,9.2,18.1h0.2c-0.6-7.2-0.9-14.2-0.9-22.5v-18.9h9.2v54.1
				h-10.2l-14.1-23.8c-3.5-5.9-7.1-12.6-9.7-18.7l-0.2,0.1c0.4,7,0.5,14.1,0.5,23v19.3L529.3,357.2L529.3,357.2z"/>
			<path class="st4" d="M583.3,346.4c3.2,1.8,8,3.5,13.1,3.5c6.3,0,9.9-3,9.9-7.4c0-4.1-2.7-6.5-9.6-9c-8.9-3.2-14.6-7.9-14.6-15.7
				c0-8.8,7.4-15.6,19.1-15.6c5.9,0,10.2,1.3,13,2.7l-2.4,7.9c-1.9-1-5.7-2.6-10.8-2.6c-6.3,0-9,3.4-9,6.5c0,4.2,3.1,6.1,10.3,8.9
				c9.4,3.5,14,8.3,14,16c0,8.7-6.6,16.2-20.5,16.2c-5.7,0-11.6-1.6-14.6-3.4L583.3,346.4z"/>
			<path class="st4" d="M635,303.1v54.1h-9.9v-54.1H635z"/>
			<path class="st4" d="M689.7,354.7c-3.5,1.3-10.2,3-17.4,3c-9.2,0-16-2.3-21.2-7.2c-4.8-4.6-7.6-11.7-7.5-19.9
				c0-17.1,12.2-28.1,30.1-28.1c6.7,0,11.9,1.4,14.4,2.6l-2.2,7.9c-3-1.3-6.6-2.3-12.3-2.3c-11.5,0-19.7,6.8-19.7,19.4
				c0,12.3,7.5,19.6,18.8,19.6c3.5,0,6.2-0.5,7.5-1.1v-13.5h-9.5v-7.8h19.1L689.7,354.7L689.7,354.7z"/>
		</g>
	</g>
</g>
<g class="st5">
	<g class="st6">
		<g>
			<g>
				<path class="st0" d="M296.6,301.6c-6.4,11.9-13,16-25.1,13.5c-8.9-1.8-17.6-5-26.1-8.3c-19.8-7.8-39.9-12.5-61.3-7.8
					c-15.6,3.5-24.1,12.3-22.3,25.3c0.8,5.8,4.3,12.1,8.5,16.3c15.3,15.5,35.3,24,53.7,34.8c18.2,10.6,36.5,21.6,52.8,34.8
					c19.1,15.5,32.5,35.9,33.1,61.5c0.8,32.9-12.7,60.5-41.5,76c-48.9,26.3-100,30.2-151,4c-12.3-6.4-22.7-15.5-30.4-26.8
					c6.6-15.6,21.2-17,35.8-14.9c5.4,0.8,10.7,3.3,15.8,5.7c18.9,8.8,38.8,12.3,59.5,12c11.3-0.2,21.6-3.8,30.5-10.8
					c16.1-12.6,19.1-34.5,4.9-49.1c-9.8-10.1-21.8-18.4-33.7-26c-15.3-9.7-32.2-16.8-47.2-26.8c-14.3-9.6-28.7-20-40-32.7
					c-37.1-42-19.3-103.3,34.1-120.6c30.9-10,61.6-6.2,91.7,4C260.4,273,280.4,283.9,296.6,301.6"/>
				<path class="st0" d="M614,440.8c-2.2-23.5-13.1-38.6-29.9-41.8c-11.3-2.2-22.2,0.6-33.1,3.8c-9.7,2.8-19.8,5.1-29.8,5.8
					c-10.7,0.7-18.1-5.6-22.5-16c15.5-17,34.3-28.1,56.9-31.9c39.7-6.6,73.6,3.1,97.5,37.4c14.5,20.8,17.7,44.8,16.2,69.5
					c-0.7,11.1-2.4,22.4-5.7,33c-17.7,57.3-83.9,85.6-137.4,58.5c-24-12.1-35.8-32.7-35.3-59.8c0.5-26.5,14.4-43.8,38.3-53.8
					c25.4-10.5,51.6-11,78.2-5.7C609.4,440,611.3,440.3,614,440.8 M614.3,477c-17.3-4.4-33.9-7.3-51-3.1c-3.9,0.9-7.7,2.8-11,5.1
					c-13.9,9.5-14.7,32.2-1.6,42.6c13.6,10.8,40.1,8.5,51-5C610.6,505.5,614.3,492.4,614.3,477"/>
				<path class="st0" d="M402.9,291.8v66.9h55.5c1.2,16.6-3.5,28.8-15.4,37.8c-11.6,8.8-25.6,7.3-39.1,8c-0.5,1.5-1.2,2.7-1.2,3.9
					c0.3,25.2,0.5,50.5,1.2,75.7c0.2,5.5,1.9,11.1,3.8,16.3c7.8,22.1,24.9,31,47.7,25.1c3.2-0.8,6.4-1.4,9.5-2.1
					c6.4,13.2,1.9,26.8-11.3,35.8c-20.1,13.6-51,12.8-70.7-1.5c-25.5-18.6-39.3-44.3-40.2-74.9c-1.6-50.5-0.9-101-0.4-151.5
					C342.5,298.4,374.9,284.7,402.9,291.8"/>
				<path class="st0" d="M910,290.6v67.8H965c3.4,13.2-3.3,29.5-14.7,38c-11.9,8.9-26,7.6-39.2,8.1c-0.7,1.1-1.2,1.5-1.2,2
					c-0.1,29.3-3.7,58.7,2.6,87.7c4.7,21.5,18.5,33.6,37.1,33.2c7.5-0.2,15-2.2,22.6-3.3c5.3,8.5,3.9,21.2-3.9,30.2
					c-10.4,12-24.1,15.9-39.3,15c-24.8-1.4-42.3-15.2-55.7-34.7c-12-17.5-18-37.4-18.3-58.4c-0.5-47.4-0.6-94.9,0.2-142.3
					C856,303.8,881.3,284.4,910,290.6"/>
				<path class="st0" d="M706.7,477.7c0.9-15.3,0.1-28.2,2.4-43.2c6.4-42,31.8-65.5,74.9-69.8c11.1-1.1,22.4-1,33.6-0.7
					c2.4,0.1,6.1,3,6.7,5.2c4.3,15.3-4.7,31.3-20,32.8c-27.8,2.8-39,17.3-40,47.4c-1.1,34.1,0,68.4,0.7,102.5
					c0.2,11.4-0.2,12.5-11.5,12c-29.3-1.3-45.9-18.3-46.5-47.7c-0.2-12,0-24,0-36C706.7,479.3,706.7,477.7,706.7,477.7"/>
			</g>
			<g>
				<g>
					<path class="st4" d="M675.9,698.6c-3,1.6-9.7,3.1-18.2,3.1c-22.4,0-36-14-36-35.5c0-23.2,16.1-37.3,37.7-37.3
						c8.5,0,14.5,1.8,17.2,3.1l-2.8,10.3c-3.3-1.5-8-2.7-13.8-2.7c-14.3,0-24.7,9-24.7,26c0,15.5,9.1,25.4,24.6,25.4
						c5.2,0,10.7-1.1,14-2.6L675.9,698.6z"/>
					<path class="st4" d="M749.4,664.7c0,23.7-14.3,37.2-33.8,37.2c-19.9,0-32.4-15.2-32.4-35.9c0-21.7,13.6-36.9,33.5-36.9
						C737.3,629,749.4,644.6,749.4,664.7z M696.8,665.8c0,14.3,7.2,25.7,19.6,25.7c12.5,0,19.5-11.5,19.5-26.3
						c0-13.3-6.6-25.8-19.5-25.8C703.6,639.4,696.8,651.2,696.8,665.8z"/>
					<path class="st4" d="M760.5,700.7v-70.5h14.7l18.2,30.2c4.7,7.8,8.8,16,12,23.7h0.2c-0.8-9.4-1.2-18.5-1.2-29.3v-24.6h11.9
						v70.5h-13.3l-18.4-31c-4.5-7.7-9.2-16.4-12.7-24.4l-0.3,0.1c0.5,9.1,0.6,18.4,0.6,30v25.2H760.5z"/>
					<path class="st4" d="M831,686.7c4.2,2.4,10.5,4.5,17.1,4.5c8.3,0,12.9-3.9,12.9-9.6c0-5.3-3.6-8.5-12.6-11.7
						c-11.6-4.2-19-10.4-19-20.5c0-11.5,9.6-20.3,24.9-20.3c7.6,0,13.3,1.7,17,3.6L868,643c-2.5-1.4-7.4-3.3-14-3.3
						c-8.2,0-11.7,4.4-11.7,8.5c0,5.4,4.1,8,13.5,11.6c12.2,4.6,18.2,10.8,18.2,20.9c0,11.3-8.6,21.1-26.8,21.1
						c-7.4,0-15.2-2.1-19-4.4L831,686.7z"/>
					<path class="st4" d="M898.5,630.2v70.5h-12.9v-70.5H898.5z"/>
					<path class="st4" d="M969.7,697.5c-4.5,1.7-13.3,4-22.7,4c-11.9,0-20.9-3-27.6-9.4c-6.3-6-9.9-15.3-9.8-26
						c0-22.3,15.9-36.6,39.2-36.6c8.7,0,15.5,1.8,18.7,3.3l-2.8,10.4c-3.9-1.7-8.6-3-16-3c-15.1,0-25.6,8.9-25.6,25.3
						c0,16,9.8,25.5,24.5,25.5c4.6,0,8.1-0.6,9.7-1.5v-17.6h-12.5v-10.2h24.9L969.7,697.5L969.7,697.5z"/>
				</g>
			</g>
		</g>
	</g>
	<g class="st6">
		<g>
			<polygon class="st1" points="490.4,86.6 581.7,-63.1 489.5,-229 			"/>
			<polygon class="st2" points="765.5,-62.2 581.7,-63.1 490.4,86.6 			"/>
			<polygon class="st3" points="489.5,-229 765.5,-62.2 581.7,-63.1 			"/>
		</g>
		<path class="st0" d="M441.3,84.5c-0.7-5.4-0.9-10.9-0.9-16.3c0.9-69.2,1.7-138.4,3-207.6c0.5-28.8,1.5-57.6,3.8-86.3
			c0.4-7.8,1.1-18.7,5.9-27.9c8.4-16,28.4-28.4,49.5-22.9c12.8,3.4,21,9.9,32.4,16.6c80,47.2,159.8,94.8,239.2,143.1
			c12,7.3,20.3,14.2,28.9,25.3c13.8,17.8,10.1,41.2-3.1,56.9c-8.2,9.7-19.9,16.3-30.9,22.6c-73.6,42.3-147.5,84.2-221.4,126
			c-17.5,9.9-36.1,16.5-59.6,16.9c-0.1,0-0.1,0-0.2,0C465,131.1,445.4,114.9,441.3,84.5 M369.5-270.4c-3.1,17.7-3.2,36.6-0.6,54.3
			c17,117,35.2,233.8,53,350.7c3,19.8,7.1,36.4,18.5,53.2c12.6,18.7,38.5,35.7,69.6,31.2c31.2-4.6,46.9-14.5,71.8-35.1
			C674.8,107.4,767,29.8,859-47.9c11.1-9.3,21.1-21.3,27.4-34.4c11.9-24.7,7.8-54.1-8.3-74.2c-13.2-16.6-29.6-23.4-49.4-31
			c-114.2-44.1-228.3-88.4-342.6-132.1c-13.9-5.3-33.1-9.1-44.1-9.1C411.9-330.7,376.3-309.4,369.5-270.4"/>
	</g>
</g>
<g class="st5">
	<path class="st7" d="M175.3,51.7c-4.9,9.2-10,12.3-19.3,10.4c-6.8-1.4-13.5-3.8-20-6.4c-15.2-6-30.6-9.6-47-6
		C77.1,52.4,70.6,59.2,72,69.2c0.6,4.4,3.3,9.3,6.5,12.5c11.7,11.9,27,18.4,41.2,26.7c13.9,8.2,28,16.5,40.5,26.7
		c14.6,11.9,24.9,27.5,25.4,47.2c0.6,25.2-9.7,46.4-31.9,58.3c-37.5,20.2-76.7,23.2-115.8,3c-9.5-4.9-17.4-11.8-23.3-20.6
		c5-12,16.3-13.1,27.5-11.4c4.2,0.6,8.2,2.6,12.1,4.4c14.5,6.8,29.8,9.4,45.6,9.2c8.7-0.1,16.6-2.9,23.4-8.3
		c12.4-9.6,14.6-26.5,3.7-37.7c-7.5-7.7-16.7-14.1-25.9-20c-11.7-7.4-24.7-12.9-36.2-20.6c-10.9-7.4-22-15.3-30.7-25.1
		C5.8,81.3,19.4,34.4,60.3,21.1c23.7-7.7,47.2-4.7,70.3,3C147.5,29.8,162.8,38.2,175.3,51.7"/>
	<path class="st7" d="M418.7,158.4c-1.7-18-10-29.6-22.9-32c-8.7-1.7-17,0.5-25.4,2.9c-7.4,2.2-15.1,3.9-22.8,4.4
		c-8.2,0.5-13.9-4.3-17.3-12.3c11.9-13,26.3-21.6,43.6-24.5c30.4-5.1,56.5,2.4,74.8,28.7c11.1,15.9,13.6,34.4,12.5,53.3
		c-0.5,8.5-1.9,17.2-4.4,25.3c-13.5,44-64.3,65.6-105.4,44.8c-18.4-9.3-27.5-25.1-27.1-45.8c0.4-20.3,11-33.6,29.4-41.2
		c19.5-8.1,39.6-8.4,59.9-4.4C415.1,157.8,416.6,158.1,418.7,158.4 M418.9,186.3c-13.2-3.3-26-5.6-39.1-2.4c-3,0.7-5.9,2.2-8.5,3.9
		c-10.7,7.3-11.3,24.7-1.2,32.6c10.4,8.3,30.7,6.5,39.1-3.8C416,208.1,418.9,198.1,418.9,186.3"/>
	<path class="st7" d="M256.8,44.2v51.3h42.6c0.9,12.8-2.7,22.1-11.8,29c-8.9,6.7-19.6,5.6-30,6.2c-0.4,1.2-1,2.1-0.9,3
		c0.2,19.4,0.4,38.7,0.9,58c0.1,4.2,1.5,8.5,2.9,12.5c6,17,19.1,23.8,36.6,19.3c2.4-0.6,4.9-1.1,7.3-1.6c4.9,10.2,1.5,20.5-8.7,27.5
		c-15.4,10.5-39.1,9.8-54.2-1.2c-19.5-14.3-30.1-34-30.9-57.5c-1.2-38.7-0.7-77.4-0.3-116.2C210.5,49.3,235.3,38.8,256.8,44.2"/>
	<path class="st7" d="M645.6,43.3v52h42.2c2.6,10.1-2.5,22.6-11.3,29.1c-9.1,6.8-19.9,5.8-30,6.2c-0.5,0.8-0.9,1.2-0.9,1.5
		c0,22.4-2.8,45,2,67.2c3.6,16.5,14.2,25.8,28.5,25.5c5.8-0.1,11.5-1.7,17.3-2.6c4.1,6.5,3,16.2-3,23.1
		c-7.9,9.2-18.5,12.2-30.1,11.5c-19-1.1-32.4-11.6-42.7-26.6c-9.2-13.4-13.8-28.7-14-44.8c-0.4-36.4-0.5-72.8,0.2-109.1
		C604.3,53.4,623.6,38.5,645.6,43.3"/>
	<path class="st7" d="M489.7,186.8c0.7-11.7,0.1-21.6,1.8-33.2c4.9-32.2,24.4-50.2,57.4-53.5c8.5-0.9,17.2-0.8,25.8-0.5
		c1.8,0,4.7,2.3,5.2,4c3.3,11.7-3.6,24-15.4,25.2c-21.3,2.1-29.9,13.3-30.7,36.4c-0.9,26.2,0,52.4,0.5,78.6c0.2,8.8-0.2,9.6-8.9,9.2
		c-22.5-1-35.2-14-35.7-36.6c-0.2-9.2,0-18.4,0-27.6C489.7,188,489.7,186.8,489.7,186.8"/>
	<g class="st6">
		<g>
			<polygon class="st1" points="803.3,277.4 859.5,185.3 802.8,83.3 			"/>
			<polygon class="st2" points="972.6,185.8 859.5,185.3 803.3,277.4 			"/>
			<polygon class="st3" points="802.8,83.3 972.6,185.8 859.5,185.3 			"/>
		</g>
		<path class="st8" d="M773.2,276.1c-0.5-3.3-0.6-6.7-0.5-10c0.6-42.6,1-85.2,1.9-127.7c0.3-17.7,0.9-35.5,2.3-53.1
			c0.2-4.8,0.7-11.5,3.6-17.2c5.2-9.8,17.5-17.5,30.4-14.1c7.9,2.1,12.9,6.1,19.9,10.2c49.2,29,98.3,58.3,147.1,88
			c7.4,4.5,12.5,8.7,17.8,15.6c8.5,11,6.2,25.4-1.9,35c-5,6-12.2,10-19,13.9c-45.3,26-90.7,51.8-136.1,77.5
			c-10.8,6.1-22.2,10.1-36.7,10.4c0,0-0.1,0-0.1,0C787.8,304.7,775.7,294.8,773.2,276.1 M729,57.8c-1.9,10.9-2,22.5-0.4,33.4
			c10.5,72,21.7,143.8,32.6,215.7c1.8,12.2,4.4,22.4,11.4,32.7c7.8,11.5,23.7,22,42.8,19.2c19.2-2.8,28.8-8.9,44.2-21.6
			c57.2-47.1,114-94.8,170.6-142.7c6.8-5.8,13-13.1,16.9-21.2c7.3-15.2,4.8-33.3-5.1-45.6c-8.1-10.2-18.2-14.4-30.4-19.1
			c-70.2-27.1-140.4-54.4-210.8-81.3c-8.5-3.3-20.3-5.6-27.1-5.6C755.1,20.7,733.2,33.8,729,57.8"/>
	</g>
	<g class="st6">
		<g>
			<path class="st4" d="M466.1,356.2c-2.3,1.2-7.5,2.4-14,2.4c-17.2,0-27.6-10.8-27.6-27.2c0-17.8,12.4-28.6,28.9-28.6
				c6.5,0,11.1,1.4,13.2,2.4l-2.2,7.9c-2.6-1.1-6.1-2.1-10.6-2.1c-11,0-18.9,6.9-18.9,19.9c0,11.9,7,19.5,18.9,19.5
				c4,0,8.2-0.8,10.8-2L466.1,356.2z"/>
			<path class="st4" d="M522.5,330.2c0,18.1-11,28.5-25.9,28.5c-15.3,0-24.9-11.6-24.9-27.5c0-16.6,10.4-28.3,25.7-28.3
				C513.2,302.8,522.5,314.8,522.5,330.2z M482.2,331c0,11,5.5,19.7,15,19.7c9.6,0,14.9-8.8,14.9-20.1c0-10.2-5.1-19.8-14.9-19.8
				C487.4,310.8,482.2,319.8,482.2,331z"/>
			<path class="st4" d="M531,357.8v-54.1h11.2l14,23.2c3.6,6,6.7,12.3,9.2,18.1h0.2c-0.6-7.2-0.9-14.2-0.9-22.5v-18.9h9.2v54.1
				h-10.2L549.6,334c-3.5-5.9-7.1-12.6-9.7-18.7l-0.2,0.1c0.4,7,0.5,14.1,0.5,23v19.3L531,357.8L531,357.8z"/>
			<path class="st4" d="M585,347c3.2,1.8,8,3.5,13.1,3.5c6.3,0,9.9-3,9.9-7.4c0-4.1-2.7-6.5-9.6-9c-8.9-3.2-14.6-7.9-14.6-15.7
				c0-8.8,7.4-15.6,19.1-15.6c5.9,0,10.2,1.3,13,2.7l-2.4,7.9c-1.9-1-5.7-2.6-10.8-2.6c-6.3,0-9,3.4-9,6.5c0,4.2,3.1,6.1,10.3,8.9
				c9.4,3.5,14,8.3,14,16c0,8.7-6.6,16.2-20.5,16.2c-5.7,0-11.6-1.6-14.6-3.4L585,347z"/>
			<path class="st4" d="M636.8,303.7v54.1h-9.9v-54.1H636.8z"/>
			<path class="st4" d="M691.5,355.3c-3.5,1.3-10.2,3-17.4,3c-9.2,0-16-2.3-21.2-7.2c-4.8-4.6-7.6-11.7-7.5-19.9
				c0-17.1,12.2-28.1,30.1-28.1c6.7,0,11.9,1.4,14.4,2.6l-2.2,7.9c-3-1.3-6.6-2.3-12.3-2.3c-11.5,0-19.7,6.8-19.7,19.4
				c0,12.3,7.5,19.6,18.8,19.6c3.5,0,6.2-0.5,7.5-1.1v-13.5h-9.5v-7.8h19.1L691.5,355.3L691.5,355.3z"/>
		</g>
	</g>
</g>
<g class="st5">
	<g class="st6">
		<g>
			<g>
				<path class="st8" d="M297.4,302.1c-6.4,12-13.1,16-25.2,13.6c-8.9-1.8-17.7-5-26.2-8.3c-19.9-7.8-40.1-12.5-61.5-7.8
					c-15.6,3.5-24.2,12.3-22.4,25.4c0.8,5.8,4.4,12.1,8.5,16.4c15.3,15.5,35.4,24.1,53.9,34.9c18.3,10.7,36.7,21.7,53,35
					c19.1,15.5,32.6,36.1,33.2,61.8c0.8,33-12.8,60.7-41.7,76.3c-49.1,26.4-100.4,30.4-151.6,4c-12.4-6.4-22.8-15.5-30.6-26.9
					c6.6-15.7,21.3-17.1,36-14.9c5.4,0.8,10.8,3.4,15.8,5.7c19,8.8,39,12.3,59.7,12c11.3-0.2,21.7-3.8,30.6-10.8
					c16.2-12.6,19.1-34.6,4.9-49.3c-9.9-10.1-21.9-18.5-33.9-26.1c-15.3-9.7-32.3-16.9-47.4-27c-14.3-9.6-28.9-20-40.2-32.9
					C75.4,340.8,93.2,279.3,146.9,262c31.1-10.1,61.8-6.2,92.1,4C261,273.4,281.1,284.3,297.4,302.1"/>
				<path class="st8" d="M616.1,441.8c-2.2-23.6-13.1-38.7-30-42c-11.4-2.2-22.2,0.6-33.2,3.8c-9.7,2.8-19.8,5.1-29.9,5.8
					c-10.8,0.7-18.1-5.6-22.6-16.1c15.5-17,34.4-28.2,57.1-32c39.8-6.6,73.9,3.2,97.9,37.5c14.6,20.9,17.8,45,16.3,69.8
					c-0.7,11.2-2.4,22.5-5.7,33.2c-17.8,57.6-84.2,85.9-138,58.7c-24-12.2-36-32.9-35.4-60c0.5-26.6,14.5-44,38.5-54
					c25.5-10.6,51.8-11,78.5-5.8C611.5,441,613.5,441.3,616.1,441.8 M616.4,478.2c-17.3-4.4-34.1-7.3-51.2-3.2
					c-3.9,0.9-7.8,2.8-11.1,5.1c-14,9.6-14.7,32.3-1.6,42.7c13.6,10.9,40.2,8.5,51.2-5C612.7,506.8,616.4,493.7,616.4,478.2"/>
				<path class="st8" d="M404.1,292.3v67.2h55.8c1.2,16.7-3.5,29-15.5,38c-11.6,8.8-25.7,7.3-39.2,8.1c-0.5,1.5-1.2,2.7-1.2,3.9
					c0.3,25.3,0.5,50.7,1.2,76c0.2,5.5,1.9,11.1,3.8,16.4c7.8,22.2,25,31.1,47.9,25.2c3.2-0.8,6.5-1.4,9.6-2.1
					c6.4,13.3,2,26.9-11.4,36c-20.2,13.7-51.2,12.9-71-1.5c-25.5-18.7-39.4-44.5-40.4-75.3c-1.6-50.7-0.9-101.4-0.4-152.1
					C343.5,298.9,376,285.1,404.1,292.3"/>
				<path class="st8" d="M913.3,291v68.1h55.3c3.4,13.2-3.3,29.6-14.8,38.2c-11.9,8.9-26.1,7.6-39.3,8.1c-0.7,1.1-1.2,1.5-1.2,2
					c-0.1,29.4-3.7,58.9,2.7,88c4.7,21.6,18.6,33.7,37.3,33.4c7.6-0.2,15.1-2.2,22.7-3.4c5.3,8.5,3.9,21.3-3.9,30.3
					c-10.4,12-24.2,15.9-39.4,15c-24.9-1.4-42.4-15.3-55.9-34.9c-12.1-17.6-18.1-37.6-18.3-58.6c-0.5-47.6-0.6-95.3,0.2-142.9
					C859.2,304.3,884.5,284.8,913.3,291"/>
				<path class="st8" d="M709.2,478.9c0.9-15.3,0.1-28.3,2.4-43.4c6.4-42.2,32-65.8,75.2-70.1c11.2-1.1,22.5-1,33.8-0.7
					c2.4,0.1,6.1,3,6.8,5.3c4.3,15.3-4.7,31.4-20.1,33c-27.9,2.8-39.2,17.3-40.2,47.6c-1.2,34.3,0,68.6,0.7,102.9
					c0.2,11.5-0.2,12.6-11.6,12c-29.5-1.3-46.1-18.3-46.7-47.9c-0.2-12,0-24.1,0-36.1C709.2,480.5,709.2,478.9,709.2,478.9"/>
			</g>
			<g>
				<g>
					<path class="st4" d="M678.3,700.8c-3,1.6-9.8,3.2-18.3,3.2c-22.5,0-36.2-14.1-36.2-35.6c0-23.3,16.2-37.4,37.8-37.4
						c8.5,0,14.6,1.8,17.2,3.2l-2.8,10.3c-3.4-1.5-8-2.7-13.9-2.7c-14.4,0-24.8,9-24.8,26.1c0,15.5,9.1,25.5,24.7,25.5
						c5.3,0,10.7-1.1,14.1-2.6L678.3,700.8z"/>
					<path class="st4" d="M752.1,666.7c0,23.8-14.4,37.3-33.9,37.3c-20,0-32.6-15.2-32.6-36c0-21.8,13.7-37.1,33.6-37.1
						C740,630.9,752.1,646.5,752.1,666.7z M699.3,667.8c0,14.4,7.3,25.9,19.7,25.9c12.5,0,19.5-11.6,19.5-26.4
						c0-13.3-6.6-26-19.5-26C706.1,641.3,699.3,653.2,699.3,667.8z"/>
					<path class="st4" d="M763.3,702.9V632H778l18.3,30.4c4.7,7.9,8.8,16.1,12.1,23.8h0.2c-0.8-9.5-1.2-18.6-1.2-29.4V632h12v70.8
						h-13.3l-18.5-31.1c-4.5-7.8-9.3-16.5-12.7-24.5l-0.3,0.1c0.5,9.1,0.6,18.5,0.6,30.2v25.3H763.3z"/>
					<path class="st4" d="M834,688.8c4.2,2.4,10.5,4.5,17.1,4.5c8.3,0,12.9-3.9,12.9-9.7c0-5.4-3.6-8.5-12.6-11.8
						c-11.7-4.2-19.1-10.4-19.1-20.6c0-11.6,9.7-20.4,25-20.4c7.7,0,13.3,1.7,17,3.6l-3.2,10.4c-2.5-1.4-7.5-3.4-14.1-3.4
						c-8.2,0-11.8,4.4-11.8,8.5c0,5.5,4.1,8,13.6,11.7c12.3,4.6,18.3,10.8,18.3,21c0,11.3-8.6,21.2-26.9,21.2
						c-7.5,0-15.2-2.1-19.1-4.4L834,688.8z"/>
					<path class="st4" d="M901.8,632v70.8h-12.9V632H901.8z"/>
					<path class="st4" d="M973.3,699.6c-4.5,1.7-13.3,4-22.8,4c-12,0-21-3.1-27.7-9.5c-6.3-6-10-15.3-9.9-26.1
						c0-22.4,16-36.8,39.4-36.8c8.7,0,15.5,1.8,18.8,3.4l-2.8,10.4c-3.9-1.7-8.6-3-16.1-3c-15.1,0-25.7,8.9-25.7,25.4
						c0,16.1,9.9,25.6,24.6,25.6c4.6,0,8.1-0.6,9.8-1.5v-17.7h-12.5v-10.2h25L973.3,699.6L973.3,699.6z"/>
				</g>
			</g>
		</g>
	</g>
	<g class="st6">
		<g>
			<polygon class="st1" points="492,86.2 583.7,-64.2 491.1,-230.7 			"/>
			<polygon class="st2" points="768.3,-63.2 583.7,-64.2 492,86.2 			"/>
			<polygon class="st3" points="491.1,-230.7 768.3,-63.2 583.7,-64.2 			"/>
		</g>
		<path class="st8" d="M442.7,84c-0.7-5.4-0.9-10.9-0.9-16.4c0.9-69.5,1.7-139,3-208.5c0.5-28.9,1.5-57.9,3.8-86.7
			c0.4-7.8,1.1-18.8,5.9-28c8.4-16,28.5-28.5,49.7-23c12.9,3.4,21.1,10,32.5,16.7c80.4,47.4,160.5,95.2,240.2,143.7
			c12,7.3,20.4,14.2,29,25.4c13.9,17.9,10.1,41.4-3.1,57.1c-8.2,9.8-19.9,16.4-31,22.7C698,29.6,623.9,71.7,549.7,113.7
			c-17.5,9.9-36.3,16.5-59.8,17c-0.1,0-0.1,0-0.2,0C466.6,130.8,446.9,114.6,442.7,84 M370.6-272.3c-3.1,17.7-3.3,36.7-0.6,54.6
			c17.1,117.5,35.4,234.8,53.2,352.1c3,19.9,7.2,36.5,18.6,53.4c12.7,18.8,38.6,35.9,69.9,31.3c31.3-4.6,47-14.6,72.1-35.2
			c93.4-76.9,186-154.8,278.5-232.9c11.1-9.4,21.2-21.4,27.6-34.6c12-24.8,7.8-54.3-8.3-74.5c-13.3-16.6-29.7-23.5-49.6-31.2
			C717.2-233.5,602.7-278,487.8-321.9c-13.9-5.3-33.2-9.1-44.3-9.1C413.2-332.8,377.4-311.4,370.6-272.3"/>
	</g>
</g>
</svg>
